<svg width="25" height="25" viewBox="0 0 25 25" fill="none" xmlns="http://www.w3.org/2000/svg">
<path d="M13.4858 24.3399H1.99124C1.25946 24.3399 0.666626 23.7467 0.666626 23.0152V1.66399C0.666626 0.932294 1.25956 0.339355 1.99124 0.339355H23.3421C24.0736 0.339355 24.6666 0.932294 24.6666 1.66399V23.0152C24.6666 23.7468 24.0735 24.3399 23.3421 24.3399H17.2263V15.0456H20.3459L20.813 11.4234H17.2263V9.11088C17.2263 8.06218 17.5175 7.34752 19.0213 7.34752L20.9393 7.34668V4.10699C20.6076 4.06285 19.469 3.96422 18.1444 3.96422C15.379 3.96422 13.4858 5.65224 13.4858 8.75215V11.4234H10.3582V15.0456H13.4858V24.3399V24.3399Z" fill="#ECC300"/>
</svg>
