<svg width="25" height="16" viewBox="0 0 25 16" fill="none" xmlns="http://www.w3.org/2000/svg">
<path fill-rule="evenodd" clip-rule="evenodd" d="M12.4103 9.45476C11.2179 9.45476 8.28927 9.45853 8.28927 9.45853V6.55418H15.61C16.1199 10.0684 14.5819 15.3399 8.28927 15.3399C4.07938 15.3399 0.666626 12.0565 0.666626 8.00635C0.666626 3.95616 4.07938 0.672852 8.28927 0.672852C10.2647 0.672852 12.0645 1.39575 13.4187 2.5816C12.3693 3.535 12.0329 3.89844 11.7471 4.20725C11.5984 4.36788 11.4634 4.51373 11.2488 4.72015C10.4655 4.09694 9.61153 3.64982 8.28927 3.64982C5.78836 3.64982 3.83644 5.60031 3.83644 8.00635C3.83644 10.4124 5.78836 12.3629 8.28927 12.3629C10.7605 12.3629 11.7646 11.3376 12.4103 9.45476ZM22.0252 4.1582V6.69952H24.6667V8.51474H22.0252V11.1287H20.1384V8.51474H17.4214V6.69952H20.1384V4.1582H22.0252Z" fill="#ECC300"/>
</svg>
