<svg width="25" height="25" viewBox="0 0 25 25" fill="none" xmlns="http://www.w3.org/2000/svg">
<path fill-rule="evenodd" clip-rule="evenodd" d="M12.6667 0.339355C9.40762 0.339355 8.99897 0.35317 7.71904 0.411571C6.44178 0.469828 5.56946 0.672707 4.80617 0.969379C4.01706 1.27601 3.34785 1.68634 2.68069 2.35347C2.01357 3.02064 1.60325 3.68987 1.29663 4.47899C0.999969 5.2423 0.797095 6.11464 0.738839 7.39193C0.68044 8.67189 0.666626 9.08055 0.666626 12.3397C0.666626 15.5987 0.68044 16.0074 0.738839 17.2873C0.797095 18.5646 0.999969 19.437 1.29663 20.2003C1.60325 20.9894 2.01357 21.6586 2.68069 22.3258C3.34785 22.9929 4.01706 23.4033 4.80617 23.7099C5.56946 24.0066 6.44178 24.2094 7.71904 24.2677C8.99897 24.3261 9.40762 24.3399 12.6667 24.3399C15.9256 24.3399 16.3343 24.3261 17.6142 24.2677C18.8915 24.2094 19.7638 24.0066 20.5271 23.7099C21.3162 23.4033 21.9854 22.9929 22.6526 22.3258C23.3197 21.6586 23.73 20.9894 24.0367 20.2003C24.3333 19.437 24.5362 18.5646 24.5944 17.2873C24.6528 16.0074 24.6666 15.5987 24.6666 12.3397C24.6666 9.08055 24.6528 8.67189 24.5944 7.39193C24.5362 6.11464 24.3333 5.2423 24.0367 4.47899C23.73 3.68987 23.3197 3.02064 22.6526 2.35347C21.9854 1.68634 21.3162 1.27601 20.5271 0.969379C19.7638 0.672707 18.8915 0.469828 17.6142 0.411571C16.3343 0.35317 15.9256 0.339355 12.6667 0.339355ZM12.6667 2.50156C15.8708 2.50156 16.2503 2.51381 17.5157 2.57154C18.6856 2.62489 19.321 2.82039 19.7439 2.98473C20.304 3.20242 20.7038 3.46246 21.1237 3.88241C21.5436 4.30232 21.8036 4.70207 22.0213 5.26221C22.1857 5.68507 22.3811 6.32048 22.4345 7.49049C22.4922 8.75587 22.5045 9.13543 22.5045 12.3397C22.5045 15.5438 22.4922 15.9234 22.4345 17.1888C22.3811 18.3588 22.1857 18.9942 22.0213 19.4171C21.8036 19.9772 21.5436 20.3769 21.1237 20.7969C20.7038 21.2168 20.304 21.4768 19.7439 21.6945C19.321 21.8589 18.6856 22.0544 17.5157 22.1077C16.2505 22.1655 15.871 22.1777 12.6667 22.1777C9.46226 22.1777 9.08281 22.1655 7.8176 22.1077C6.64761 22.0544 6.01222 21.8589 5.58937 21.6945C5.02925 21.4768 4.6295 21.2168 4.20961 20.7969C3.78971 20.3769 3.52963 19.9772 3.31194 19.4171C3.1476 18.9942 2.95211 18.3588 2.89876 17.1888C2.84103 15.9234 2.82879 15.5438 2.82879 12.3397C2.82879 9.13543 2.84103 8.75587 2.89876 7.49049C2.95211 6.32048 3.1476 5.68507 3.31194 5.26221C3.52963 4.70207 3.78966 4.30232 4.20961 3.88241C4.6295 3.46246 5.02925 3.20242 5.58937 2.98473C6.01222 2.82039 6.64761 2.62489 7.8176 2.57154C9.08295 2.51381 9.4625 2.50156 12.6667 2.50156ZM6.50447 12.3397C6.50447 8.93627 9.26334 6.17733 12.6667 6.17733C16.0699 6.17733 18.8288 8.93627 18.8288 12.3397C18.8288 15.743 16.0699 18.5019 12.6667 18.5019C9.26334 18.5019 6.50447 15.743 6.50447 12.3397ZM12.6667 16.3397C10.4575 16.3397 8.66663 14.5488 8.66663 12.3397C8.66663 10.1304 10.4575 8.33954 12.6667 8.33954C14.8758 8.33954 16.6666 10.1304 16.6666 12.3397C16.6666 14.5488 14.8758 16.3397 12.6667 16.3397ZM19.0722 7.37388C19.8675 7.37388 20.5123 6.72918 20.5123 5.93387C20.5123 5.13855 19.8675 4.49381 19.0722 4.49381C18.277 4.49381 17.6323 5.13855 17.6323 5.93387C17.6323 6.72918 18.277 7.37388 19.0722 7.37388Z" fill="#ECC300"/>
</svg>
