<svg width="25" height="23" viewBox="0 0 25 23" fill="none" xmlns="http://www.w3.org/2000/svg">
<path fill-rule="evenodd" clip-rule="evenodd" d="M3.49165 5.70133H3.45778C1.76446 5.70133 0.666626 4.59346 0.666626 3.18914C0.666626 1.75751 1.79692 0.672852 3.5241 0.672852C5.24988 0.672852 6.31103 1.75477 6.34489 3.18504C6.34489 4.58936 5.24988 5.70133 3.49165 5.70133ZM24.6667 22.0067H19.3624V14.507C19.3624 12.5439 18.5326 11.2038 16.7081 11.2038C15.3125 11.2038 14.5364 12.1082 14.1751 12.9797C14.0559 13.2552 14.058 13.6259 14.0602 14.008C14.0605 14.0599 14.0608 14.112 14.0608 14.1641V22.0067H8.80591C8.80591 22.0067 8.87364 8.72169 8.80591 7.51409H14.0608V9.78859C14.3713 8.7941 16.0505 7.37476 18.7302 7.37476C22.0547 7.37476 24.6667 9.45937 24.6667 13.9483V22.0067ZM5.94977 7.51416H1.27197V22.0067H5.94977V7.51416Z" fill="#ECC300"/>
</svg>
