<svg width="25" height="24" viewBox="0 0 25 24" fill="none" xmlns="http://www.w3.org/2000/svg">
<path fill-rule="evenodd" clip-rule="evenodd" d="M21.9733 16.351L18.5866 15.9644C17.7733 15.871 16.9733 16.151 16.4 16.7244L13.9466 19.1778C10.1733 17.2577 7.07997 14.1777 5.15997 10.3909L7.62664 7.92418C8.19997 7.35084 8.47997 6.55082 8.38664 5.73747L7.99997 2.37739C7.83997 1.03069 6.70664 0.017334 5.34664 0.017334H3.03997C1.53331 0.017334 0.279973 1.2707 0.373306 2.7774C1.07997 14.1643 10.1866 23.2579 21.56 23.9646C23.0666 24.0579 24.32 22.8045 24.32 21.2978V18.9911C24.3333 17.6444 23.32 16.511 21.9733 16.351Z" fill="#ECC300"/>
</svg>
