<svg width="25" height="25" viewBox="0 0 25 25" fill="none" xmlns="http://www.w3.org/2000/svg">
<path d="M12.6673 0.339355C6.04041 0.339355 0.666626 5.71186 0.666626 12.3403C0.666626 17.2528 3.62164 21.4751 7.85096 23.3309C7.81709 22.494 7.84532 21.4864 8.05841 20.5748C8.28984 19.601 9.60224 14.0366 9.60224 14.0366C9.60224 14.0366 9.21981 13.2703 9.21981 12.1371C9.21981 10.359 10.2514 9.03104 11.5342 9.03104C12.625 9.03104 13.1528 9.85095 13.1528 10.8332C13.1528 11.9297 12.4528 13.5709 12.093 15.0908C11.7924 16.3651 12.7308 17.4024 13.9868 17.4024C16.2602 17.4024 17.7913 14.4826 17.7913 11.0223C17.7913 8.39317 16.0203 6.42452 12.7986 6.42452C9.15913 6.42452 6.89136 9.13829 6.89136 12.1696C6.89136 13.2167 7.199 13.9534 7.68162 14.5235C7.90459 14.7874 7.93422 14.8918 7.85378 15.1938C7.79734 15.4126 7.66469 15.946 7.60965 16.1563C7.52921 16.4597 7.28367 16.5698 7.0099 16.4569C5.332 15.7724 4.55161 13.9364 4.55161 11.8718C4.55161 8.46373 7.4262 4.37402 13.1274 4.37402C17.7095 4.37402 20.7252 7.69179 20.7252 11.2495C20.7252 15.9573 18.1089 19.474 14.2493 19.474C12.9552 19.474 11.736 18.7741 11.3182 17.9796C11.3182 17.9796 10.6211 20.7441 10.4744 21.2776C10.2203 22.2019 9.72219 23.1277 9.26638 23.8474C10.3459 24.1663 11.4862 24.3399 12.6673 24.3399C19.2943 24.3399 24.6666 18.9674 24.6666 12.3403C24.6666 5.71186 19.2943 0.339355 12.6673 0.339355Z" fill="#ECC300"/>
</svg>
