<svg width="19" height="27" viewBox="0 0 19 27" fill="none" xmlns="http://www.w3.org/2000/svg">
<path fill-rule="evenodd" clip-rule="evenodd" d="M0 9.66973C0 4.50961 4.17333 0.336182 9.33333 0.336182C14.4933 0.336182 18.6667 4.50961 18.6667 9.66973C18.6667 15.2299 12.7733 22.8967 10.36 25.8168C9.82667 26.4568 8.85333 26.4568 8.32 25.8168C5.89333 22.8967 0 15.2299 0 9.66973ZM6 9.66973C6 11.5098 7.49333 13.0031 9.33333 13.0031C11.1733 13.0031 12.6667 11.5098 12.6667 9.66973C12.6667 7.82969 11.1733 6.33632 9.33333 6.33632C7.49333 6.33632 6 7.82969 6 9.66973Z" fill="#ECC300"/>
</svg>
