<svg width="25" height="21" viewBox="0 0 25 21" fill="none" xmlns="http://www.w3.org/2000/svg">
<path d="M24.6666 2.3738C23.7848 2.7754 22.8353 3.04698 21.8394 3.16833C22.8564 2.54426 23.6369 1.55471 24.0045 0.375921C23.0523 0.95376 22 1.37414 20.8758 1.5995C19.9799 0.618613 18.6994 0.00610352 17.2822 0.00610352C14.5648 0.00610352 12.3602 2.2669 12.3602 5.05497C12.3602 5.45079 12.4025 5.83506 12.487 6.20487C8.39475 5.99396 4.76735 3.98597 2.33734 0.927757C1.91332 1.67606 1.67103 2.54426 1.67103 3.46881C1.67103 5.21966 2.5402 6.76538 3.86155 7.67114C3.05578 7.64658 2.29508 7.41689 1.63018 7.0413V7.10341C1.63018 9.55056 3.32766 11.5918 5.58158 12.0541C5.16883 12.1725 4.73354 12.2317 4.28416 12.2317C3.96721 12.2317 3.65729 12.2014 3.35724 12.1422C3.98411 14.1473 5.80133 15.6078 7.95664 15.6468C6.27184 17.0018 4.14752 17.8093 1.84148 17.8093C1.44423 17.8093 1.0512 17.7862 0.666626 17.74C2.84588 19.1701 5.43507 20.0066 8.21443 20.0066C17.2724 20.0066 22.2239 12.3141 22.2239 5.64148C22.2239 5.4219 22.2197 5.20232 22.2113 4.98708C23.1734 4.27489 24.0088 3.38646 24.6666 2.3738Z" fill="#ECC300"/>
</svg>
