<svg width="25" height="18" viewBox="0 0 25 18" fill="none" xmlns="http://www.w3.org/2000/svg">
<path fill-rule="evenodd" clip-rule="evenodd" d="M23.4726 1.63268C24.1919 2.38049 24.4266 4.07867 24.4266 4.07867C24.4266 4.07867 24.6666 6.07336 24.6666 8.06727V9.93719C24.6666 11.9319 24.4266 13.9258 24.4266 13.9258C24.4266 13.9258 24.1919 15.624 23.4726 16.3718C22.6503 17.2564 21.7385 17.3478 21.2231 17.3995C21.1665 17.4052 21.1146 17.4104 21.0681 17.4161C17.7096 17.6656 12.6666 17.6733 12.6666 17.6733C12.6666 17.6733 6.42663 17.6148 4.50663 17.4253C4.41566 17.4079 4.30538 17.3943 4.1805 17.3789C3.57232 17.304 2.61776 17.1864 1.85988 16.3718C1.14063 15.624 0.906626 13.9258 0.906626 13.9258C0.906626 13.9258 0.666626 11.9319 0.666626 9.93719V8.06727C0.666626 6.07336 0.906626 4.07867 0.906626 4.07867C0.906626 4.07867 1.14063 2.38049 1.85988 1.63268C2.68402 0.746788 3.59668 0.656373 4.11211 0.605312C4.16799 0.599776 4.2192 0.594702 4.26513 0.589128C7.62363 0.3396 12.6614 0.3396 12.6614 0.3396H12.6719C12.6719 0.3396 17.7096 0.3396 21.0681 0.589128C21.114 0.594711 21.1653 0.599791 21.2212 0.605337C21.7362 0.656403 22.6493 0.746932 23.4726 1.63268ZM10.1879 5.27856L10.1886 12.203L16.6724 8.7527L10.1879 5.27856Z" fill="#ECC300"/>
</svg>
