<svg width="18" height="18" viewBox="0 0 163 163" fill="none" xmlns="http://www.w3.org/2000/svg">
<path d="M81.6044 157.209C123.359 157.209 157.209 123.359 157.209 81.6044C157.209 39.8492 123.359 6 81.6044 6C39.8492 6 6 39.8492 6 81.6044C6 123.359 39.8492 157.209 81.6044 157.209Z" stroke="black" stroke-width="11.3407" stroke-linecap="round" stroke-linejoin="round"/>
<path d="M104.286 55.1429C99.1066 49.964 89.9864 46.3618 81.6042 46.1363M81.6042 46.1363C71.6312 45.8679 62.7031 50.3796 62.7031 62.7034C62.7031 85.3846 104.286 74.044 104.286 96.7253C104.286 109.661 93.2185 115.22 81.6042 114.802M81.6042 46.1363V32.4615M58.9229 104.286C63.7954 110.782 72.8552 114.488 81.6042 114.802M81.6042 114.802V130.747" stroke="#68665b" stroke-width="11.3407" stroke-linecap="round" stroke-linejoin="round"/>
</svg>
