<svg width="24" height="24" viewBox="0 0 163 163" fill="none" xmlns="http://www.w3.org/2000/svg">
<path d="M81.6044 6C39.8492 6 6 39.8492 6 81.6044C6 123.359 39.8492 157.209 81.6044 157.209C123.359 157.209 157.209 123.359 157.209 81.6044C157.209 39.8492 123.359 6 81.6044 6Z" stroke="#ecc300" stroke-width="11.3407" stroke-linecap="round" stroke-linejoin="round"/>
<path d="M23.1738 129.581C23.1738 129.581 40.0262 108.066 81.6085 108.066C123.191 108.066 140.044 129.581 140.044 129.581" stroke="#ecc300" stroke-width="11.3407" stroke-linecap="round" stroke-linejoin="round"/>
<path d="M81.6042 81.6045C94.1311 81.6045 104.286 71.45 104.286 58.9231C104.286 46.3966 94.1311 36.2418 81.6042 36.2418C69.0773 36.2418 58.9229 46.3966 58.9229 58.9231C58.9229 71.45 69.0773 81.6045 81.6042 81.6045Z" stroke="#ecc300" stroke-width="11.3407" stroke-linecap="round" stroke-linejoin="round"/>
</svg>
