<svg width="39" height="40" viewBox="0 0 39 40" fill="none" xmlns="http://www.w3.org/2000/svg">
<path d="M24.6564 1.01077C23.6084 1.12108 22.6155 1.83816 22.0639 2.8862C21.3468 4.32035 16.0515 14.9662 15.0034 16.0142C13.9554 17.0622 12.5764 17.5587 11.0319 17.5587V39.6226H30.3378C31.4962 39.6226 32.4891 38.9055 32.9304 37.9126C32.9304 37.9126 38.6118 21.8611 38.6118 20.3167C38.6118 18.7722 37.3983 17.5587 35.8538 17.5587H27.5799C26.0354 17.5587 24.8219 16.1797 24.8219 14.8007C24.8219 13.4217 26.9731 6.08546 27.4144 4.65131C27.8557 3.21715 27.1386 1.67268 25.7044 1.17624C25.3183 1.06593 25.0425 0.955606 24.6564 1.01077ZM0 17.5587V39.6226H5.51597V17.5587H0Z" fill="#ECC300"/>
</svg>
