<svg width="18" height="18" viewBox="0 0 40 45" fill="none" xmlns="http://www.w3.org/2000/svg">
<path d="M11.8014 0.277222V5.78533H17.3095V5.95057C7.94569 7.27251 0.785156 15.3694 0.785156 25.0637C0.785156 35.6943 9.43288 44.342 20.0635 44.342C30.6942 44.342 39.3419 35.6943 39.3419 25.0637C39.3419 22.585 38.7911 20.2716 37.9649 18.1786L32.9525 20.2716C33.5584 21.869 33.8338 23.4113 33.8338 25.1188C33.8338 32.775 27.7198 38.889 20.0635 38.889C12.4073 38.889 6.29326 32.775 6.29326 25.1188C6.29326 17.4625 12.4073 11.3485 20.0635 11.3485C21.7159 11.3485 23.3133 11.6239 24.9106 12.2298L26.7834 7.05219C25.5165 6.61154 24.1946 6.39122 22.8176 6.17089V5.84041H28.3257V0.332303H11.8014V0.277222ZM39.3419 6.66662C39.3419 6.66662 19.2373 22.1444 18.1908 23.1909C17.1442 24.2926 17.1442 25.8899 18.1908 26.9915C19.2373 28.0931 20.8897 28.0931 21.9914 26.9915C23.093 25.8899 39.397 6.66662 39.397 6.66662H39.3419Z" fill="#615d4c"/>
</svg>
