<svg width="18" height="18" viewBox="0 0 39 62" fill="none" xmlns="http://www.w3.org/2000/svg">
<path d="M15.8791 0V7.70695H10.0989C4.85821 7.70695 0.465253 12.0999 0.465253 17.3406V21.1941C0.465253 26.4348 3.85631 30.7507 8.86583 32.0609L28.5956 37.1475C29.6746 37.4558 31.216 39.3825 31.216 40.5385V44.392C31.216 45.471 30.3682 46.3188 29.2892 46.3188H10.0219C9.09703 46.3188 8.40341 46.0105 8.09513 45.8563V38.6118H0.388184V46.3188C0.388184 48.9391 1.92957 51.1741 3.77924 52.3302C5.55184 53.5633 7.78685 54.0257 10.0219 54.0257H15.8021V61.7326H23.509V54.0257H29.2892C34.607 54.0257 38.9229 49.7098 38.9229 44.392V40.5385C38.9229 35.2978 35.5319 30.9819 30.5223 29.6717L10.7926 24.5852C9.71359 24.2769 8.1722 22.3501 8.1722 21.1941V17.3406C8.1722 16.2617 9.01996 15.4139 10.0989 15.4139H29.3663C30.2141 15.4139 30.9848 15.7222 31.293 15.8763V23.1208H39V15.4139C39 12.7935 37.4586 10.5585 35.6089 9.40248C33.8363 8.16936 31.6013 7.70695 29.3663 7.70695H23.5861V0L15.8791 0Z" fill="#615d4c"/>
</svg>
