<svg width="18" height="18" viewBox="0 0 163 163" fill="none" xmlns="http://www.w3.org/2000/svg">
<path d="M138.307 157.209C144.571 157.209 149.648 152.131 149.648 145.868C149.648 139.605 144.571 134.528 138.307 134.528C132.044 134.528 126.967 139.605 126.967 145.868C126.967 152.131 132.044 157.209 138.307 157.209Z" fill="black" stroke="black" stroke-width="11.3407" stroke-linecap="round" stroke-linejoin="round"/>
<path d="M62.703 157.209C68.966 157.209 74.0436 152.131 74.0436 145.868C74.0436 139.605 68.966 134.528 62.703 134.528C56.4397 134.528 51.3623 139.605 51.3623 145.868C51.3623 152.131 56.4397 157.209 62.703 157.209Z" fill="black" stroke="black" stroke-width="11.3407" stroke-linecap="round" stroke-linejoin="round"/>
<path d="M115.627 21.1209H157.209L142.088 104.286H108.066M115.627 21.1209L108.066 104.286M115.627 21.1209H72.1542M108.066 104.286H77.8245M72.1542 21.1209H28.6816L43.8025 104.286H77.8245M72.1542 21.1209L77.8245 104.286" stroke="black" stroke-width="11.3407" stroke-linecap="round" stroke-linejoin="round"/>
<path d="M28.6813 21.1209C27.4212 16.0806 21.1209 6 6 6" stroke="black" stroke-width="11.3407" stroke-linecap="round" stroke-linejoin="round"/>
<path d="M142.088 104.286H43.8023H30.4261C16.9359 104.286 9.78027 110.192 9.78027 119.407C9.78027 128.621 16.9359 134.528 30.4261 134.528H138.308" stroke="#68665b" stroke-width="11.3407" stroke-linecap="round" stroke-linejoin="round"/>
</svg>
